PathFileType	4	(X/Y/Z)	3_coords_data.trc
DataRate	CameraRate	NumFrames	NumMarkers	Units	OrigDataRate	OrigDataStartFrame	OrigNumFrames
30.0	30.0	6	21	m	30.0	51	81
Frame#	Time	THUMB_TIP	THUMB_IP	THUMB_MCP	THUMB_CMC	INDEX_TIP	INDEX_DIP	INDEX_PIP	INDEX_MCP	MIDDLE_TIP	MIDDLE_DIP	MIDDLE_PIP	MIDDLE_MCP	RING_TIP	RING_DIP	RING_PIP	RING_MCP	PINKY_TIP	PINKY_DIP	PINKY_PIP	PINKY_MCP	WRIST
X1	Y1	Z1	X2	Y2	Z2	X3	Y3	Z3	X4	Y4	Z4	X5	Y5	Z5	X6	Y6	Z6	X7	Y7	Z7	X8	Y8	Z8	X9	Y9	Z9	X10	Y10	Z10	X11	Y11	Z11	X12	Y12	Z12	X13	Y13	Z13	X14	Y14	Z14	X15	Y15	Z15	X16	Y16	Z16	X17	Y17	Z17	X18	Y18	Z18	X19	Y19	Z19	X20	Y20	Z20	X21	Y21	Z21
49	1.6666666666666594	0.5048862341089344	-0.0053994419383520675	-0.166384369530458	0.4970098021185596	-0.00980232637367473	-0.1452520145327254	0.48311729540898185	-0.020657815121407408	-0.1196009595569123	0.4777657787572127	-0.02696519752184179	-0.07576640473106133	0.5718025092014457	-0.010874906076698387	-0.12200746809715807	0.5613660248369233	0.0021200023259666523	-0.12909352128037804	0.5409375224211765	0.016152436614454646	-0.1333097885856016	0.501248280804238	0.012013247474242594	-0.11843473204339561	0.580389382771625	-0.00536119140571234	-0.1089178042771502	0.5709605117897054	0.009590045490849297	-0.11286202882314267	0.5477285524456831	0.026985561622009213	-0.11552316271083923	0.5053420491567207	0.025398879498410243	-0.10148697021524294	0.567782888122289	0.004250911465324192	-0.08928349667280527	0.5640305695295653	0.021679775788693234	-0.09195834126199054	0.5474710766039189	0.04006032096921097	-0.09480768011730739	0.5091481887001847	0.033706978631076356	-0.08359553768812422	0.5621311849357132	0.0012867873847653977	-0.07346032817998904	0.5597002717948006	0.018113818147675653	-0.07147495743239296	0.5459569125096748	0.033925116114442766	-0.07008393221117881	0.5108073822888783	0.031720933235311166	-0.062303472450171204	0.4622830810018608	-0.023011742144276925	-0.051989820119430985
50	1.6999999999999926	0.5072503643906314	-0.005475504617673432	-0.16545696595188164	0.49865272858695975	-0.009959583444478115	-0.14462493062975285	0.48411705097501856	-0.02087436385848407	-0.11935831936358293	0.47796778512932125	-0.02708052468332356	-0.07561406148468908	0.5776704622971961	-0.0011697659121849835	-0.13023603958065177	0.5634897488174196	0.009252000491159484	-0.13451320572643238	0.5404236965472503	0.019225684917518582	-0.13521512070220776	0.502180985695325	0.011579937236813609	-0.11810741182290335	0.5873493677691841	0.0068406075696541	-0.11619708884486979	0.5736118058297808	0.01849675472810519	-0.11804468874246293	0.5472350239099039	0.030876333865546612	-0.11739588528139971	0.5059713436400282	0.025031239014515094	-0.1012933551147483	0.5756952369714924	0.014238725577859435	-0.09375666724224363	0.5668460234815528	0.029826860534298005	-0.09568058750808844	0.5465070058017532	0.044170770940608006	-0.09655039960075673	0.5098285695358397	0.0331319971410724	-0.08360595600166698	0.5702358517731619	0.010660766605492866	-0.07593354006607567	0.56282575388917	0.025945486932290762	-0.07381982913947527	0.545914188440442	0.03817204711708816	-0.07151283994987878	0.5118219024168922	0.03079830756562696	-0.062335288549004275	0.4622830810018609	-0.023011742144276925	-0.051989820119430985
51	1.7333333333333258	0.5094011903673908	-0.005801839447827972	-0.1646600732317643	0.5002382969458955	-0.010326168676261571	-0.14407921248253763	0.48516306816050725	-0.02121376988026069	-0.11911889162941397	0.4781374264564455	-0.02721103703362826	-0.07547759071689197	0.5804069515281234	0.007508945512173404	-0.13699689999439674	0.5641661941774364	0.015319412517704856	-0.13879534538739924	0.5399097031277782	0.02154122510645995	-0.1365768947865833	0.5031609848480485	0.011124290897170264	-0.11774460123331704	0.5905189326918414	0.017549608086748936	-0.12189376335890661	0.5745455869668398	0.026084732149971424	-0.12195608169464128	0.5467074789282557	0.03406636495261417	-0.11867845623771439	0.5067776165520835	0.024551035608232352	-0.10103723975222495	0.5802967678665636	0.023660412805365016	-0.09748748445369804	0.5680273303490139	0.03682956555883943	-0.09850449908417369	0.5454747862042808	0.047360197890060074	-0.0976868718436063	0.5106578811986618	0.032469249792204835	-0.08351776373558883	0.5751008116943774	0.020117472584621876	-0.0777455263192548	0.5642165041995614	0.03312739487596106	-0.0754490567828564	0.545332847684647	0.041781556875505665	-0.07239536791324808	0.5128349459493037	0.029862154806187646	-0.06226138113064783	0.4622830810018609	-0.023011742144276925	-0.051989820119430985
52	1.7666666666666588	0.5111981283187103	-0.006289374585131791	-0.16400513098503777	0.5016513156470369	-0.010796587779974276	-0.14359573616235355	0.4860912578522705	-0.021564879388996316	-0.11888240985352577	0.4782935813030855	-0.027357322824096975	-0.07534468093382396	0.5813113524775301	0.014624918464236747	-0.14216007835860994	0.5640518641401102	0.020109213236794543	-0.14197959794925147	0.5395096630641032	0.023193107390089174	-0.13748740514438285	0.504128049202154	0.010620236179310516	-0.11739510801236996	0.5916774946474046	0.026266680528066355	-0.12613150066911072	0.5745998423508034	0.032128839549238675	-0.12472122280752512	0.5462728291918147	0.03647713475969083	-0.11942195830636604	0.5076370711268606	0.024022476881741694	-0.10075895702335774	0.5828246406817784	0.03160862892970523	-0.10042180935042483	0.5683676147448563	0.042378315523442456	-0.10051264839402624	0.5446237398262167	0.049548299662401984	-0.09827664519745721	0.511480785455708	0.031823651230374284	-0.08337354996339941	0.5776445797380562	0.028366138447913802	-0.07903468478179332	0.564495946356527	0.039014765976396526	-0.07644235533556654	0.5445559837585746	0.04447359165322906	-0.07278023398009292	0.5137861480233102	0.028962625992032698	-0.06212609844115591	0.462283081001861	-0.023011742144276925	-0.051989820119430985
53	1.7999999999999918	0.5128536189946931	-0.006945396686959926	-0.16345126096680057	0.5030237578677688	-0.011386767906749862	-0.1431621493077504	0.48709977514687985	-0.022021837991752613	-0.11862356624776293	0.4784383259768811	-0.027528322172593045	-0.07521218605498758	0.5814799090993609	0.02020740558112788	-0.14608193127745545	0.5637984379868592	0.023702670791131586	-0.1443074734984402	0.5394761319488125	0.024133768195689687	-0.13796323067369143	0.5051834409923606	0.010068115409505918	-0.11699170586828422	0.5919909129580234	0.03303196283232296	-0.12923158899111153	0.5744441419921056	0.036619113004031756	-0.12654027289759295	0.5461624184939575	0.0380092438235895	-0.11963946118600305	0.5085282510127983	0.023498373987375087	-0.10042352988938091	0.5843822905562585	0.037888310694380756	-0.10265574929348859	0.5685200499201797	0.04641484330380252	-0.10182655470619151	0.5442462601978676	0.050799294199535605	-0.09840022987338848	0.512384704098973	0.03113153663356011	-0.0831443657784573	0.5788591181692256	0.035081605726460685	-0.07985949799001169	0.5642843383044123	0.04355756303699643	-0.07690417405477123	0.5438854717026861	0.0462666460786173	-0.0727377451955944	0.5146646412531035	0.028125724688088716	-0.061878026509577744	0.462283081001861	-0.023011742144276925	-0.051989820119430985
54	1.8333333333333253	0.5141314200481941	-0.007589339564447961	-0.16302876128152055	0.5040992841138442	-0.01193825901836254	-0.14281878482982496	0.48790267081844474	-0.022420373578317387	-0.11839308131669601	0.4785641929895468	-0.0276874003607811	-0.07509248939566115	0.5811980909363005	0.024412976569221145	-0.1489237835626696	0.5634315000512694	0.02619459098070448	-0.14589490614475947	0.5395535779032244	0.02458361223140032	-0.13819689248140477	0.5059675156184551	0.009695737631879475	-0.11665707576648027	0.591886415219589	0.03815938294452503	-0.13141884492985717	0.5742463042706978	0.03982509705058623	-0.12767026090016353	0.546253296591398	0.0389549152722789	-0.11960528385497832	0.5093585104334674	0.022972323698608632	-0.10012505177345982	0.5853408382119816	0.04253779463514429	-0.10431351136843786	0.5686393654829867	0.04911830760762648	-0.10265289169445013	0.5442216594294793	0.051315796055468266	-0.0982794886023356	0.5130634560182394	0.030615639030635633	-0.08293704116618406	0.5793329668046527	0.040337227592744274	-0.08031755813846964	0.5638492948357707	0.04686029113234186	-0.07704562531238157	0.543357912864303	0.047416820777253454	-0.0725062907076468	0.5153254347455994	0.027482690362363837	-0.06165760110352558	0.4622830810018609	-0.023011742144276925	-0.051989820119430985
